<?xml version="1.0" encoding="utf-8"?>
<!-- Generator: Adobe Illustrator 28.2.0, SVG Export Plug-In . SVG Version: 6.00 Build 0)  -->
<svg version="1.1" id="Layer_1" xmlns="http://www.w3.org/2000/svg" xmlns:xlink="http://www.w3.org/1999/xlink" x="0px" y="0px"
	 viewBox="0 0 291.7 39" style="enable-background:new 0 0 291.7 39;" xml:space="preserve">
<style type="text/css">
	.st0{fill:#EBEDF0;}
	.st1{enable-background:new    ;}
</style>
<g>
	<path class="st0" d="M30.3,2.8v34.1h24.4V2.8H30.3z M52.3,34.4h-0.8L32.7,21.2v-16h0.7l18.9,13.3V34.4z"/>
	<g>
		<path class="st0" d="M82.5,4.5L82.5,4.5L82.5,4.5z"/>
		<path class="st0" d="M84.2,2.8L59.4,2.7v0.7l0,0v2l22.1,0.1L66.2,20l15.2,14.4l-21.7-0.1v2l0,0V37l24.5,0l0,0V2.8L84.2,2.8z
			 M82.5,4.5L82.5,4.5L82.5,4.5L82.5,4.5z"/>
	</g>
	<path class="st0" d="M26.9,2.8H1.7L16,13.7L0,36.9h1c1.9,0,8.6,0,14.4,0h9.8l-14.5-11L26.9,2.8z"/>
</g>
<g class="st1">
	<path class="st0" d="M108.6,9.7v6.3c0,0.2,0.1,0.3,0.3,0.4l11.8,2.7c0.1,0,0.3,0.1,0.6,0.3l0.9,0.9c0.2,0.2,0.2,0.4,0.2,0.6v10.3
		c0,0.2-0.1,0.4-0.2,0.6l-1.9,1.9c-0.2,0.2-0.3,0.2-0.6,0.2h-12.2c-0.3,0-0.5-0.1-0.6-0.2l-1.9-1.9c-0.2-0.1-0.2-0.3-0.2-0.6v-6.7
		h3.8v5.6c0,0.1,0.1,0.2,0.2,0.2h9.6c0.1,0,0.2-0.1,0.2-0.2v-7.2c0-0.2-0.1-0.3-0.3-0.4l-11.8-2.7c-0.2-0.1-0.4-0.2-0.6-0.3
		l-0.9-0.9c-0.2-0.1-0.2-0.3-0.2-0.6V8.7c0-0.2,0.1-0.4,0.2-0.6l1.9-1.9c0.2-0.2,0.3-0.2,0.6-0.2h12.2c0.2,0,0.3,0.1,0.6,0.2
		l1.9,1.9c0.2,0.2,0.2,0.4,0.2,0.6v5.6h-3.8V9.7c0-0.1-0.1-0.2-0.2-0.2h-9.6C108.6,9.6,108.6,9.6,108.6,9.7z"/>
	<path class="st0" d="M131,6h3.2l5.2,13.1h0.4L145,6h3.2v2.8l-6.7,16.4V34h-3.8v-8.8L131,8.8V6z"/>
</g>
<g class="st1">
	<path class="st0" d="M162.6,9.7v6.3c0,0.2,0.1,0.3,0.3,0.4l11.8,2.7c0.1,0,0.3,0.1,0.6,0.3l0.9,0.9c0.2,0.2,0.2,0.4,0.2,0.6v10.3
		c0,0.2-0.1,0.4-0.2,0.6l-1.9,1.9c-0.2,0.2-0.3,0.2-0.6,0.2h-12.2c-0.3,0-0.5-0.1-0.6-0.2l-1.9-1.9c-0.2-0.1-0.2-0.3-0.2-0.6v-6.7
		h3.8v5.6c0,0.1,0.1,0.2,0.2,0.2h9.6c0.1,0,0.2-0.1,0.2-0.2v-7.2c0-0.2-0.1-0.3-0.3-0.4l-11.8-2.7c-0.2-0.1-0.4-0.2-0.6-0.3
		l-0.9-0.9c-0.2-0.1-0.2-0.3-0.2-0.6V8.7c0-0.2,0.1-0.4,0.2-0.6l1.9-1.9c0.2-0.2,0.3-0.2,0.6-0.2h12.2c0.2,0,0.3,0.1,0.6,0.2
		l1.9,1.9c0.2,0.2,0.2,0.4,0.2,0.6v5.6h-3.8V9.7c0-0.1-0.1-0.2-0.2-0.2h-9.6C162.6,9.6,162.6,9.6,162.6,9.7z"/>
	<path class="st0" d="M192.7,34V9.6h-6.9V6h17.6v3.6h-6.9V34H192.7z"/>
	<path class="st0" d="M228.7,9.6h-12.1V18h9.6v3.7h-9.6v8.6h12.1V34h-15.9V6h15.9V9.6z"/>
	<path class="st0" d="M241.9,34h-3.8V6h4.4c0.2,0,0.3,0.1,0.4,0.3l5.7,19.1h0.4l5.7-19.1c0.1-0.2,0.2-0.3,0.4-0.3h4.4v28h-3.8V16.1
		h-0.4L250,34h-2.5l-5.2-17.9h-0.4V34z"/>
	<path class="st0" d="M272.8,9.7v6.3c0,0.2,0.1,0.3,0.3,0.4l11.8,2.7c0.1,0,0.3,0.1,0.6,0.3l0.9,0.9c0.2,0.2,0.2,0.4,0.2,0.6v10.3
		c0,0.2-0.1,0.4-0.2,0.6l-1.9,1.9c-0.2,0.2-0.3,0.2-0.6,0.2h-12.2c-0.3,0-0.5-0.1-0.6-0.2l-1.9-1.9c-0.2-0.1-0.2-0.3-0.2-0.6v-6.7
		h3.8v5.6c0,0.1,0.1,0.2,0.2,0.2h9.6c0.1,0,0.2-0.1,0.2-0.2v-7.2c0-0.2-0.1-0.3-0.3-0.4l-11.8-2.7c-0.2-0.1-0.4-0.2-0.6-0.3
		l-0.9-0.9c-0.2-0.1-0.2-0.3-0.2-0.6V8.7c0-0.2,0.1-0.4,0.2-0.6l1.9-1.9c0.2-0.2,0.3-0.2,0.6-0.2h12.2c0.2,0,0.3,0.1,0.6,0.2
		l1.9,1.9c0.2,0.2,0.2,0.4,0.2,0.6v5.6h-3.8V9.7c0-0.1-0.1-0.2-0.2-0.2h-9.6C272.8,9.6,272.8,9.6,272.8,9.7z"/>
</g>
</svg>
